<svg data-v-423bf9ae="" xmlns="http://www.w3.org/2000/svg" viewBox="0 0 280.7042640990371 60" class="font"><!----><!----><!----><g data-v-423bf9ae="" id="4949d965-fb20-4078-89cc-3add2cd93eac" fill="white" transform="matrix(4.225584506988525,0,0,4.225584506988525,-1.0563828945159912,-14.57496452331543)"><path d="M0.25 14.43L0.25 14.43L0.25 14.01L0.25 14.01Q0.25 13.80 0.46 13.80L0.46 13.80L0.49 13.80L0.49 13.80Q0.98 13.79 1.25 13.43L1.25 13.43L1.25 13.43Q1.50 13.07 1.50 12.52L1.50 12.52L1.50 12.52Q1.50 12.50 1.50 12.47L1.50 12.47L1.50 10.99L1.50 10.99Q1.50 10.70 1.48 10.49L1.48 10.49L1.48 10.49Q1.46 10.29 1.38 10.05L1.38 10.05L1.38 10.05Q1.31 9.81 1.13 9.67L1.13 9.67L1.13 9.67Q0.95 9.53 0.68 9.50L0.68 9.50L0.68 9.50Q0.50 9.48 0.51 9.32L0.51 9.32L0.51 8.85L0.51 8.85Q0.51 8.76 0.56 8.73L0.56 8.73L0.56 8.73Q0.60 8.70 0.71 8.66L0.71 8.66L0.71 8.66Q2.51 8.06 3.29 7.24L3.29 7.24L3.29 7.24Q3.32 7.21 3.35 7.21L3.35 7.21L3.38 7.21L3.38 7.21Q3.40 7.21 3.41 7.23L3.41 7.23L3.41 12.47L3.41 12.47Q3.41 13.06 3.68 13.43L3.68 13.43L3.68 13.43Q3.94 13.80 4.44 13.80L4.44 13.80L4.48 13.80L4.48 13.80Q4.69 13.80 4.69 14.01L4.69 14.01L4.69 14.43L4.69 14.43Q4.69 14.53 4.62 14.59L4.62 14.59L4.62 14.59Q4.55 14.64 4.45 14.64L4.45 14.64L0.49 14.64L0.49 14.64Q0.39 14.64 0.32 14.59L0.32 14.59L0.32 14.59Q0.25 14.53 0.25 14.43ZM1.38 5.33L1.38 5.33L1.38 5.33Q1.38 4.98 1.73 4.63L1.73 4.63L1.73 4.63Q2.08 4.29 2.43 4.29L2.43 4.29L2.43 4.29Q2.78 4.29 3.13 4.63L3.13 4.63L3.13 4.63Q3.49 4.99 3.49 5.33L3.49 5.33L3.49 5.33Q3.49 5.68 3.13 6.04L3.13 6.04L3.13 6.04Q2.78 6.38 2.43 6.38L2.43 6.38L2.43 6.38Q2.08 6.38 1.73 6.04L1.73 6.04L1.73 6.04Q1.38 5.69 1.38 5.33ZM5.28 14.43L5.28 14.43L5.28 14.01L5.28 14.01Q5.28 13.80 5.48 13.80L5.48 13.80L5.52 13.80L5.52 13.80Q6.01 13.80 6.27 13.43L6.27 13.43L6.27 13.43Q6.54 13.06 6.54 12.47L6.54 12.47L6.54 10.71L6.54 10.71Q6.54 10.37 6.51 10.14L6.51 10.14L6.51 10.14Q6.49 9.92 6.41 9.67L6.41 9.67L6.41 9.67Q6.34 9.41 6.16 9.27L6.16 9.27L6.16 9.27Q5.98 9.13 5.71 9.10L5.71 9.10L5.71 9.10Q5.53 9.08 5.54 8.92L5.54 8.92L5.54 8.44L5.54 8.44Q5.54 8.29 5.74 8.26L5.74 8.26L5.74 8.26Q6.64 8.11 7.40 7.81L7.40 7.81L7.40 7.81Q8.16 7.50 8.52 7.24L8.52 7.24L8.52 7.24Q8.57 7.21 8.58 7.21L8.58 7.21L8.61 7.21L8.61 7.21Q8.63 7.21 8.63 7.23L8.63 7.23L8.38 9.06L8.38 9.06Q9.39 7.46 10.80 7.46L10.80 7.46L10.80 7.46Q11.38 7.46 11.82 7.62L11.82 7.62L11.82 7.62Q12.25 7.77 12.51 8.02L12.51 8.02L12.51 8.02Q12.76 8.27 12.92 8.64L12.92 8.64L12.92 8.64Q13.07 9.00 13.13 9.37L13.13 9.37L13.13 9.37Q13.18 9.73 13.18 10.17L13.18 10.17L13.18 12.47L13.18 12.47Q13.18 13.06 13.45 13.43L13.45 13.43L13.45 13.43Q13.71 13.80 14.21 13.80L14.21 13.80L14.27 13.80L14.27 13.80Q14.49 13.80 14.49 14.01L14.49 14.01L14.49 14.43L14.49 14.43Q14.49 14.64 14.27 14.64L14.27 14.64L10.47 14.64L10.47 14.64Q10.26 14.64 10.26 14.43L10.26 14.43L10.26 14.01L10.26 14.01Q10.26 13.80 10.48 13.80L10.48 13.80L10.48 13.80Q10.86 13.81 11.05 13.44L11.05 13.44L11.05 13.44Q11.22 13.10 11.22 12.55L11.22 12.55L11.22 12.55Q11.22 12.51 11.22 12.47L11.22 12.47L11.22 10.36L11.22 10.36Q11.22 10.32 11.22 10.25L11.22 10.25L11.22 10.25Q11.22 10.04 11.22 9.92L11.22 9.92L11.22 9.92Q11.22 9.81 11.20 9.62L11.20 9.62L11.20 9.62Q11.18 9.43 11.14 9.32L11.14 9.32L11.14 9.32Q11.11 9.21 11.03 9.08L11.03 9.08L11.03 9.08Q10.96 8.94 10.85 8.87L10.85 8.87L10.85 8.87Q10.75 8.80 10.58 8.75L10.58 8.75L10.58 8.75Q10.42 8.70 10.21 8.70L10.21 8.70L10.21 8.70Q9.70 8.70 9.19 9.06L9.19 9.06L9.19 9.06Q8.69 9.43 8.50 9.89L8.50 9.89L8.50 12.47L8.50 12.47Q8.50 13.06 8.77 13.43L8.77 13.43L8.77 13.43Q9.04 13.80 9.53 13.80L9.53 13.80L9.56 13.80L9.56 13.80Q9.77 13.80 9.77 14.01L9.77 14.01L9.77 14.43L9.77 14.43Q9.77 14.64 9.56 14.64L9.56 14.64L5.48 14.64L5.48 14.64Q5.28 14.64 5.28 14.43ZM14.51 10.81L14.51 10.81L14.51 10.81Q14.57 9.97 14.91 9.31L14.91 9.31L14.91 9.31Q15.25 8.65 15.75 8.26L15.75 8.26L15.75 8.26Q16.26 7.88 16.84 7.68L16.84 7.68L16.84 7.68Q17.42 7.48 18.04 7.48L18.04 7.48L18.30 7.49L18.30 7.49Q19.48 7.57 20.08 8.11L20.08 8.11L20.08 8.11Q20.68 8.64 20.84 9.41L20.84 9.41L20.85 9.47L20.85 9.47Q20.85 9.61 20.69 9.65L20.69 9.65L19.08 10.08L19.08 10.08Q19.01 10.10 18.96 10.10L18.96 10.10L18.96 10.10Q18.89 10.10 18.87 10.08L18.87 10.08L18.87 10.08Q18.84 10.06 18.85 10.01L18.85 10.01L18.86 9.86L18.86 9.86Q18.87 9.79 18.87 9.71L18.87 9.71L18.87 9.71Q18.87 9.21 18.61 8.93L18.61 8.93L18.61 8.93Q18.33 8.60 17.72 8.59L17.72 8.59L17.72 8.59Q17.09 8.59 16.74 9.09L16.74 9.09L16.74 9.09Q16.39 9.58 16.32 10.36L16.32 10.36L16.32 10.36Q16.30 10.72 16.30 10.89L16.30 10.89L16.30 10.89Q16.30 11.44 16.40 11.90L16.40 11.90L16.40 11.90Q16.50 12.37 16.72 12.75L16.72 12.75L16.72 12.75Q16.93 13.13 17.32 13.35L17.32 13.35L17.32 13.35Q17.70 13.58 18.20 13.58L18.20 13.58L18.20 13.58Q18.29 13.58 18.47 13.56L18.47 13.56L18.47 13.56Q18.90 13.52 19.31 13.27L19.31 13.27L19.31 13.27Q19.73 13.01 20.03 12.56L20.03 12.56L20.03 12.56Q20.10 12.46 20.19 12.46L20.19 12.46L20.19 12.46Q20.26 12.46 20.32 12.50L20.32 12.50L20.69 12.76L20.69 12.76Q20.85 12.87 20.77 13.04L20.77 13.04L20.77 13.04Q20.05 14.56 18.22 14.75L18.22 14.75L18.22 14.75Q18.03 14.77 17.83 14.77L17.83 14.77L17.83 14.77Q17.07 14.77 16.41 14.43L16.41 14.43L16.41 14.43Q15.75 14.10 15.32 13.54L15.32 13.54L15.32 13.54Q14.88 12.99 14.66 12.27L14.66 12.27L14.66 12.27Q14.49 11.71 14.49 11.13L14.49 11.13L14.49 11.13Q14.49 10.97 14.51 10.81ZM21.21 8.26L21.21 8.26L21.21 7.85L21.21 7.85Q21.21 7.64 21.42 7.64L21.42 7.64L24.66 7.64L24.66 7.64Q24.86 7.64 24.86 7.85L24.86 7.85L24.86 8.26L24.86 8.26Q24.86 8.48 24.66 8.48L24.66 8.48L24.63 8.48L24.63 8.48Q24.19 8.48 24.19 8.84L24.19 8.84L24.19 8.84Q24.19 9.10 24.50 9.80L24.50 9.80L25.44 11.85L26.45 9.77L26.45 9.77Q26.80 9.06 26.80 8.78L26.80 8.78L26.80 8.78Q26.80 8.48 26.48 8.48L26.48 8.48L26.23 8.48L26.23 8.48Q26.02 8.48 26.02 8.26L26.02 8.26L26.02 7.85L26.02 7.85Q26.02 7.64 26.23 7.64L26.23 7.64L28.94 7.64L28.94 7.64Q29.14 7.64 29.14 7.85L29.14 7.85L29.14 8.26L29.14 8.26Q29.14 8.48 28.94 8.48L28.94 8.48L28.73 8.48L28.73 8.48Q28.50 8.48 28.33 8.66L28.33 8.66L28.33 8.66Q28.16 8.84 27.92 9.35L27.92 9.35L23.86 17.53L23.86 17.53Q23.77 17.71 23.58 17.62L23.58 17.62L22.86 17.26L22.86 17.26Q22.66 17.17 22.76 16.98L22.76 16.98L24.32 13.62L22.26 9.36L22.26 9.36Q22.00 8.82 21.86 8.65L21.86 8.65L21.86 8.65Q21.71 8.48 21.46 8.48L21.46 8.48L21.42 8.48L21.42 8.48Q21.21 8.48 21.21 8.26ZM29.16 11.13L29.16 11.13L29.16 11.13Q29.16 10.19 29.43 9.47L29.43 9.47L29.43 9.47Q29.70 8.75 30.16 8.32L30.16 8.32L30.16 8.32Q30.63 7.90 31.20 7.68L31.20 7.68L31.20 7.68Q31.77 7.46 32.43 7.46L32.43 7.46L32.43 7.46Q33.50 7.46 34.25 8.11L34.25 8.11L34.25 7.23L34.25 7.23Q34.25 6.88 34.22 6.66L34.22 6.66L34.22 6.66Q34.20 6.43 34.12 6.18L34.12 6.18L34.12 6.18Q34.04 5.93 33.87 5.78L33.87 5.78L33.87 5.78Q33.69 5.64 33.41 5.61L33.41 5.61L33.41 5.61Q33.24 5.59 33.25 5.43L33.25 5.43L33.25 4.96L33.25 4.96Q33.25 4.87 33.29 4.84L33.29 4.84L33.29 4.84Q33.34 4.81 33.46 4.77L33.46 4.77L33.46 4.77Q35.01 4.25 36.09 3.47L36.09 3.47L36.09 3.47Q36.13 3.45 36.15 3.45L36.15 3.45L36.18 3.45L36.18 3.45Q36.20 3.45 36.20 3.47L36.20 3.47L36.20 12.05L36.20 12.05Q36.20 12.34 36.24 12.54L36.24 12.54L36.24 12.54Q36.27 12.75 36.36 12.95L36.36 12.95L36.36 12.95Q36.44 13.15 36.61 13.27L36.61 13.27L36.61 13.27Q36.78 13.39 37.02 13.42L37.02 13.42L37.02 13.42Q37.20 13.44 37.19 13.60L37.19 13.60L37.19 14.08L37.19 14.08Q37.19 14.26 36.99 14.26L36.99 14.26L36.99 14.26Q36.35 14.26 35.83 14.35L35.83 14.35L35.83 14.35Q35.31 14.44 35.08 14.53L35.08 14.53L35.08 14.53Q34.85 14.61 34.41 14.80L34.41 14.80L34.41 14.80Q34.36 14.83 34.29 14.83L34.29 14.83L34.25 14.83L34.25 14.83Q34.23 14.83 34.24 14.78L34.24 14.78L34.40 13.54L34.40 13.54Q34.32 13.72 34.19 13.90L34.19 13.90L34.19 13.90Q34.06 14.09 33.82 14.31L33.82 14.31L33.82 14.31Q33.58 14.54 33.17 14.68L33.17 14.68L33.17 14.68Q32.76 14.83 32.26 14.83L32.26 14.83L32.26 14.83Q31.86 14.83 31.45 14.71L31.45 14.71L31.45 14.71Q31.04 14.59 30.62 14.30L30.62 14.30L30.62 14.30Q30.20 14.01 29.88 13.60L29.88 13.60L29.88 13.60Q29.56 13.19 29.36 12.55L29.36 12.55L29.36 12.55Q29.16 11.91 29.16 11.13ZM30.96 10.68L30.96 10.68L30.96 10.68Q30.96 12.01 31.49 12.80L31.49 12.80L31.49 12.80Q32.03 13.59 32.89 13.59L32.89 13.59L32.89 13.59Q33.19 13.59 33.43 13.47L33.43 13.47L33.43 13.47Q33.67 13.34 33.82 13.17L33.82 13.17L33.82 13.17Q33.96 13.00 34.06 12.83L34.06 12.83L34.06 12.83Q34.17 12.65 34.21 12.53L34.21 12.53L34.24 12.41L34.24 10.11L34.24 10.11Q34.16 9.42 33.76 8.98L33.76 8.98L33.76 8.98Q33.35 8.53 32.68 8.53L32.68 8.53L32.68 8.53Q30.96 8.53 30.96 10.68ZM37.50 11.08L37.50 11.08L37.50 11.08Q37.50 10.33 37.69 9.71L37.69 9.71L37.69 9.71Q37.88 9.10 38.20 8.69L38.20 8.69L38.20 8.69Q38.51 8.29 38.95 8.01L38.95 8.01L38.95 8.01Q39.38 7.73 39.85 7.61L39.85 7.61L39.85 7.61Q40.32 7.49 40.83 7.49L40.83 7.49L40.83 7.49Q41.36 7.49 41.84 7.67L41.84 7.67L41.84 7.67Q42.31 7.85 42.65 8.13L42.65 8.13L42.65 8.13Q42.98 8.42 43.23 8.78L43.23 8.78L43.23 8.78Q43.47 9.14 43.59 9.50L43.59 9.50L43.59 9.50Q43.71 9.86 43.71 10.19L43.71 10.19L43.71 10.19Q43.71 10.31 43.59 10.36L43.59 10.36L39.53 12.14L39.53 12.14Q39.80 12.79 40.34 13.22L40.34 13.22L40.34 13.22Q40.87 13.64 41.63 13.64L41.63 13.64L41.63 13.64Q42.10 13.64 42.58 13.38L42.58 13.38L42.58 13.38Q43.06 13.13 43.42 12.61L43.42 12.61L43.42 12.61Q43.46 12.55 43.53 12.55L43.53 12.55L43.53 12.55Q43.63 12.55 44.09 12.82L44.09 12.82L44.09 12.82Q44.15 12.86 44.15 12.93L44.15 12.93L44.15 12.93Q44.15 13.02 44.06 13.18L44.06 13.18L44.06 13.18Q43.18 14.81 41.25 14.81L41.25 14.81L41.25 14.81Q40.13 14.81 39.26 14.30L39.26 14.30L39.26 14.30Q38.39 13.79 37.94 12.94L37.94 12.94L37.94 12.94Q37.50 12.10 37.50 11.08ZM39.58 9.05L39.58 9.05L39.58 9.05Q39.23 9.50 39.23 10.20L39.23 10.20L39.23 10.20Q39.23 10.90 39.36 11.27L39.36 11.27L41.61 10.13L41.61 10.13Q41.61 9.47 41.29 9.03L41.29 9.03L41.29 9.03Q40.97 8.59 40.49 8.59L40.49 8.59L40.49 8.59Q39.92 8.59 39.58 9.05ZM44.43 14.43L44.43 14.43L44.43 14.01L44.43 14.01Q44.43 13.80 44.63 13.80L44.63 13.80L44.67 13.80L44.67 13.80Q45.16 13.80 45.42 13.43L45.42 13.43L45.42 13.43Q45.68 13.06 45.68 12.47L45.68 12.47L45.68 10.71L45.68 10.71Q45.68 10.37 45.66 10.14L45.66 10.14L45.66 10.14Q45.64 9.92 45.56 9.67L45.56 9.67L45.56 9.67Q45.49 9.41 45.31 9.27L45.31 9.27L45.31 9.27Q45.13 9.13 44.86 9.10L44.86 9.10L44.86 9.10Q44.68 9.08 44.69 8.92L44.69 8.92L44.69 8.44L44.69 8.44Q44.69 8.29 44.89 8.26L44.89 8.26L44.89 8.26Q45.79 8.11 46.55 7.81L46.55 7.81L46.55 7.81Q47.30 7.50 47.67 7.24L47.67 7.24L47.67 7.24Q47.71 7.21 47.73 7.21L47.73 7.21L47.76 7.21L47.76 7.21Q47.78 7.21 47.78 7.23L47.78 7.23L47.53 9.06L47.53 9.06Q48.54 7.46 49.95 7.46L49.95 7.46L49.95 7.46Q50.53 7.46 50.97 7.62L50.97 7.62L50.97 7.62Q51.40 7.77 51.66 8.02L51.66 8.02L51.66 8.02Q51.91 8.27 52.07 8.64L52.07 8.64L52.07 8.64Q52.22 9.00 52.27 9.37L52.27 9.37L52.27 9.37Q52.33 9.73 52.33 10.17L52.33 10.17L52.33 12.47L52.33 12.47Q52.33 13.06 52.60 13.43L52.60 13.43L52.60 13.43Q52.86 13.80 53.36 13.80L53.36 13.80L53.42 13.80L53.42 13.80Q53.63 13.80 53.63 14.01L53.63 14.01L53.63 14.43L53.63 14.43Q53.63 14.64 53.42 14.64L53.42 14.64L49.62 14.64L49.62 14.64Q49.41 14.64 49.41 14.43L49.41 14.43L49.41 14.01L49.41 14.01Q49.41 13.80 49.63 13.80L49.63 13.80L49.63 13.80Q50.01 13.81 50.20 13.44L50.20 13.44L50.20 13.44Q50.37 13.10 50.37 12.55L50.37 12.55L50.37 12.55Q50.37 12.51 50.37 12.47L50.37 12.47L50.37 10.36L50.37 10.36Q50.37 10.32 50.37 10.25L50.37 10.25L50.37 10.25Q50.37 10.04 50.37 9.92L50.37 9.92L50.37 9.92Q50.37 9.81 50.35 9.62L50.35 9.62L50.35 9.62Q50.33 9.43 50.29 9.32L50.29 9.32L50.29 9.32Q50.26 9.21 50.18 9.08L50.18 9.08L50.18 9.08Q50.11 8.94 50.00 8.87L50.00 8.87L50.00 8.87Q49.90 8.80 49.73 8.75L49.73 8.75L49.73 8.75Q49.57 8.70 49.36 8.70L49.36 8.70L49.36 8.70Q48.85 8.70 48.34 9.06L48.34 9.06L48.34 9.06Q47.84 9.43 47.65 9.89L47.65 9.89L47.65 12.47L47.65 12.47Q47.65 13.06 47.92 13.43L47.92 13.43L47.92 13.43Q48.19 13.80 48.68 13.80L48.68 13.80L48.71 13.80L48.71 13.80Q48.92 13.80 48.92 14.01L48.92 14.01L48.92 14.43L48.92 14.43Q48.92 14.64 48.71 14.64L48.71 14.64L44.63 14.64L44.63 14.64Q44.43 14.64 44.43 14.43ZM53.18 8.27L53.18 8.27L53.18 7.85L53.18 7.85Q53.18 7.64 53.40 7.64L53.40 7.64L54.41 7.64L54.41 6.71L54.41 6.71Q54.41 6.53 54.54 6.45L54.54 6.45L54.54 6.45Q55.51 5.93 56.25 5.30L56.25 5.30L56.25 5.30Q56.29 5.26 56.31 5.26L56.31 5.26L56.33 5.26L56.33 5.26Q56.37 5.26 56.37 5.28L56.37 5.28L56.37 7.64L58.24 7.64L58.24 7.64Q58.45 7.64 58.45 7.85L58.45 7.85L58.45 8.46L58.45 8.46Q58.45 8.67 58.24 8.67L58.24 8.67L56.38 8.67L56.38 12.67L56.38 12.67Q56.38 13.62 56.96 13.62L56.96 13.62L56.96 13.62Q57.31 13.62 57.96 13.22L57.96 13.22L57.97 13.21L57.97 13.21Q58.03 13.17 58.09 13.17L58.09 13.17L58.09 13.17Q58.18 13.17 58.26 13.28L58.26 13.28L58.48 13.63L58.48 13.63Q58.52 13.69 58.52 13.75L58.52 13.75L58.52 13.75Q58.52 13.84 58.41 13.92L58.41 13.92L58.00 14.18L58.00 14.18Q56.96 14.82 56.03 14.82L56.03 14.82L56.03 14.82Q55.69 14.82 55.41 14.71L55.41 14.71L55.41 14.71Q55.13 14.61 54.90 14.37L54.90 14.37L54.90 14.37Q54.67 14.13 54.54 13.70L54.54 13.70L54.54 13.70Q54.41 13.27 54.41 12.67L54.41 12.67L54.41 10.08L54.41 10.08Q54.41 9.86 54.40 9.74L54.40 9.74L54.40 9.74Q54.40 9.63 54.38 9.43L54.38 9.43L54.38 9.43Q54.37 9.24 54.33 9.13L54.33 9.13L54.33 9.13Q54.29 9.02 54.22 8.88L54.22 8.88L54.22 8.88Q54.15 8.74 54.04 8.66L54.04 8.66L54.04 8.66Q53.94 8.59 53.77 8.54L53.77 8.54L53.77 8.54Q53.61 8.48 53.40 8.48L53.40 8.48L53.40 8.48Q53.18 8.48 53.18 8.27ZM58.75 8.26L58.75 8.26L58.75 7.85L58.75 7.85Q58.75 7.64 58.96 7.64L58.96 7.64L62.19 7.64L62.19 7.64Q62.40 7.64 62.40 7.85L62.40 7.85L62.40 8.26L62.40 8.26Q62.40 8.48 62.19 8.48L62.19 8.48L62.17 8.48L62.17 8.48Q61.72 8.48 61.72 8.84L61.72 8.84L61.72 8.84Q61.72 9.10 62.04 9.80L62.04 9.80L62.97 11.85L63.98 9.77L63.98 9.77Q64.33 9.06 64.33 8.78L64.33 8.78L64.33 8.78Q64.33 8.48 64.01 8.48L64.01 8.48L63.77 8.48L63.77 8.48Q63.55 8.48 63.55 8.26L63.55 8.26L63.55 7.85L63.55 7.85Q63.55 7.64 63.77 7.64L63.77 7.64L66.47 7.64L66.47 7.64Q66.68 7.64 66.68 7.85L66.68 7.85L66.68 8.26L66.68 8.26Q66.68 8.48 66.47 8.48L66.47 8.48L66.27 8.48L66.27 8.48Q66.04 8.48 65.86 8.66L65.86 8.66L65.86 8.66Q65.69 8.84 65.45 9.35L65.45 9.35L61.39 17.53L61.39 17.53Q61.30 17.71 61.11 17.62L61.11 17.62L60.40 17.26L60.40 17.26Q60.20 17.17 60.29 16.98L60.29 16.98L61.86 13.62L59.80 9.36L59.80 9.36Q59.54 8.82 59.39 8.65L59.39 8.65L59.39 8.65Q59.25 8.48 58.99 8.48L58.99 8.48L58.96 8.48L58.96 8.48Q58.75 8.48 58.75 8.26Z"></path></g><!----><!----></svg>